# xmcd CD database file
#
# Track frame offsets:
#	150
#	24641
#	48793
#	72916
#	99641
#	119820
#	151320
#	177139
#	203965
#	224726
#
# Disc length: 3231 seconds
#
# Revision: 0
# Processed by: cddbd v1.5.2PL0 Copyright (c) Steve Scherf et al.
# Submitted via: CDex 1.70beta2
#
DISCID=930c9d0a
DTITLE=Aaron Bing - Secret Place
DYEAR=2009
DGENRE=Jazz
TTITLE0=After the Storm
TTITLE1=Into the Light
TTITLE2=My Sunshine
TTITLE3=Without You
TTITLE4=Dominica
TTITLE5=Cover Me
TTITLE6=Joyful
TTITLE7=Secret Place
TTITLE8=Evening Tide
TTITLE9=Keep it Movin
EXTD=YEAR: 2009
EXTT0=
EXTT1=
EXTT2=
EXTT3=
EXTT4=
EXTT5=
EXTT6=
EXTT7=
EXTT8=
EXTT9=
PLAYORDER=
